<svg xmlns="http://www.w3.org/2000/svg" viewBox="0 0 32 32" width="32" height="32">
  <rect width="32" height="32" rx="6" fill="#0969da"/>
  <path fill="#ffffff" d="M16 3C8.8 3 3 8.8 3 16c0 5.7 3.7 10.6 8.8 12.4.6.1.9-.3.9-.6v-2.2c-3.6.8-4.4-1.7-4.4-1.7-.6-1.5-1.4-1.9-1.4-1.9-1.2-.8.1-.8.1-.8 1.3.1 2 1.4 2 1.4 1.2 2 3.1 1.4 3.9 1.1.1-.9.5-1.5.8-1.8-3-.3-6.1-1.5-6.1-6.6 0-1.5.5-2.7 1.4-3.6-.1-.4-.6-1.8.1-3.6 0 0 1.1-.4 3.7 1.4 1.1-.3 2.2-.4 3.3-.4s2.3.2 3.3.4c2.6-1.8 3.7-1.4 3.7-1.4.7 1.9.3 3.2.1 3.7.9.9 1.4 2.1 1.4 3.6 0 5.2-3.1 6.3-6.1 6.6.5.4.8 1.1.8 2.3v3.4c0 .4.2.7.8.6C25.3 26.6 29 21.7 29 16 29 8.8 23.2 3 16 3z"/>
</svg>
